<svg id="Layer_1" data-name="Layer 1" xmlns="http://www.w3.org/2000/svg" viewBox="0 0 238.74 47.54"><defs><style>.cls-1{fill:#fff;}.cls-2{fill:#19e0d6;}.cls-3{font-size:21px;fill:#fcfcfc;stroke:#f5f7f7;font-family:ArialMT, Arial;letter-spacing:0.22em;}.cls-4{letter-spacing:0.15em;}.cls-5{letter-spacing:0.16em;}</style></defs><title>roar_logo_small</title><g id="PAGES-New-Grid-Copy"><g id="Hosting---Leaderboard-Copy-2"><g id="Group-4"><g id="Page-1"><path id="Fill-1" class="cls-1" d="M69.85,495.28c0,7.74-6,14.05-13.4,14.05S43.06,503,43.06,495.28s6-14,13.39-14,13.4,6.3,13.4,14m-13.4-19.47c-10.23,0-18.56,8.73-18.56,19.47s8.33,19.47,18.56,19.47S75,506,75,495.28s-8.33-19.47-18.57-19.47" transform="translate(-1.1 -475.81)"/><path id="Fill-3" class="cls-1" d="M146.13,493.38H141.9V482.15h3.75c5.45,0,7.57,1.55,7.57,5.54,0,1.55,0,5.69-7.09,5.69m2.8,5.16,5.4,16.16h5.94l-6.44-17.82c3.18-1.88,4.8-5,4.8-9.19,0-5-2.23-10.91-12.83-10.91h-9.21v37.91h5.31V498.8h4.7a14.54,14.54,0,0,0,2.33-.26" transform="translate(-1.1 -475.81)"/><path id="Fill-5" class="cls-1" d="M10.64,493.38H6.41V482.15h3.76c5.44,0,7.56,1.55,7.56,5.54,0,1.55,0,5.69-7.09,5.69m2.8,5.16,5.4,16.16h5.95l-6.44-17.82c3.18-1.88,4.79-5,4.79-9.19,0-5-2.23-10.91-12.83-10.91H1.1v37.91H6.41V498.8h4.71a14.35,14.35,0,0,0,2.32-.26" transform="translate(-1.1 -475.81)"/><polygon id="Fill-7" class="cls-1" points="105.73 3.4 103.05 11.76 106.86 23.73 99.2 23.73 97.45 29.15 108.6 29.15 111.75 39 117.37 39 105.73 3.4"/><polygon id="Fill-9" class="cls-2" points="98.16 1.09 103.69 1.09 91.38 39 85.85 39 98.16 1.09"/></g></g></g></g><text class="cls-3" transform="translate(174.04 38.3) scale(0.91 1)">BE<tspan class="cls-4" x="37.25" y="0">T</tspan><tspan class="cls-5" x="53.14" y="0">A</tspan></text><text x="-1.1" y="-475.81"></text></svg>